<mxfile host="Electron" modified="2024-10-14T09:57:42.108Z" agent="Mozilla/5.0 (Windows NT 10.0; Win64; x64) AppleWebKit/537.36 (KHTML, like Gecko) draw.io/24.1.0 Chrome/120.0.6099.109 Electron/28.1.0 Safari/537.36" etag="eEXzcNy-YCSFZFeP3uGE" version="24.1.0" type="device">
  <diagram name="PÃ¡gina-1" id="HnM5bIwWVijFqjH4xQIT">
    <mxGraphModel dx="219" dy="256" grid="1" gridSize="10" guides="1" tooltips="1" connect="1" arrows="1" fold="1" page="1" pageScale="1" pageWidth="827" pageHeight="1169" math="0" shadow="0">
      <root>
        <mxCell id="0" />
        <mxCell id="1" parent="0" />
        <mxCell id="9hvnd5XY3FECfgj-unJh-1" value="&amp;lt;&amp;lt;component&amp;gt;&amp;gt;&lt;div&gt;&lt;b&gt;Master Data&lt;/b&gt;&lt;/div&gt;&lt;div&gt;&lt;b&gt;&lt;br&gt;&lt;/b&gt;&lt;/div&gt;&lt;div&gt;&lt;b&gt;&lt;br&gt;&lt;/b&gt;&lt;/div&gt;&lt;div&gt;&lt;b&gt;&lt;br&gt;&lt;/b&gt;&lt;/div&gt;&lt;div&gt;&lt;b&gt;&lt;br&gt;&lt;/b&gt;&lt;/div&gt;&lt;div&gt;&lt;b&gt;&lt;br&gt;&lt;/b&gt;&lt;/div&gt;&lt;div&gt;&lt;b&gt;&lt;br&gt;&lt;/b&gt;&lt;/div&gt;&lt;div&gt;&lt;b&gt;&lt;br&gt;&lt;/b&gt;&lt;/div&gt;&lt;div&gt;&lt;b&gt;&lt;br&gt;&lt;/b&gt;&lt;/div&gt;&lt;div&gt;&lt;b&gt;&lt;br&gt;&lt;/b&gt;&lt;/div&gt;" style="html=1;dropTarget=0;whiteSpace=wrap;" parent="1" vertex="1">
          <mxGeometry x="220" y="280" width="420" height="190" as="geometry" />
        </mxCell>
        <mxCell id="9hvnd5XY3FECfgj-unJh-2" value="" style="shape=module;jettyWidth=8;jettyHeight=4;" parent="9hvnd5XY3FECfgj-unJh-1" vertex="1">
          <mxGeometry x="1" width="20" height="20" relative="1" as="geometry">
            <mxPoint x="-27" y="7" as="offset" />
          </mxGeometry>
        </mxCell>
        <mxCell id="9hvnd5XY3FECfgj-unJh-3" value="" style="shape=umlLifeline;perimeter=lifelinePerimeter;whiteSpace=wrap;html=1;container=1;dropTarget=0;collapsible=0;recursiveResize=0;outlineConnect=0;portConstraint=eastwest;newEdgeStyle={&quot;curved&quot;:0,&quot;rounded&quot;:0};participant=umlEntity;" parent="1" vertex="1">
          <mxGeometry x="240" y="200" width="40" height="80" as="geometry" />
        </mxCell>
        <mxCell id="9hvnd5XY3FECfgj-unJh-4" value="API" style="text;html=1;align=center;verticalAlign=middle;resizable=0;points=[];autosize=1;strokeColor=none;fillColor=none;" parent="1" vertex="1">
          <mxGeometry x="240" y="230" width="40" height="30" as="geometry" />
        </mxCell>
        <mxCell id="9hvnd5XY3FECfgj-unJh-5" value="" style="verticalLabelPosition=bottom;verticalAlign=top;html=1;shape=mxgraph.basic.rect;fillColor2=none;strokeWidth=1;size=20;indent=5;" parent="1" vertex="1">
          <mxGeometry x="250" y="270" width="20" height="20" as="geometry" />
        </mxCell>
        <mxCell id="jY3SdsNUeQHSifuaZXAf-2" value="" style="rounded=0;orthogonalLoop=1;jettySize=auto;html=1;endArrow=halfCircle;endFill=0;endSize=6;strokeWidth=1;sketch=0;fontSize=12;curved=1;exitX=0.492;exitY=0.078;exitDx=0;exitDy=0;exitPerimeter=0;" edge="1" parent="1" source="jY3SdsNUeQHSifuaZXAf-4">
          <mxGeometry relative="1" as="geometry">
            <mxPoint x="310" y="260" as="sourcePoint" />
            <mxPoint x="310" y="229.61" as="targetPoint" />
          </mxGeometry>
        </mxCell>
        <mxCell id="jY3SdsNUeQHSifuaZXAf-3" value="IAM API" style="edgeLabel;html=1;align=center;verticalAlign=middle;resizable=0;points=[];" vertex="1" connectable="0" parent="jY3SdsNUeQHSifuaZXAf-2">
          <mxGeometry x="0.428" y="-1" relative="1" as="geometry">
            <mxPoint x="29" y="8" as="offset" />
          </mxGeometry>
        </mxCell>
        <mxCell id="jY3SdsNUeQHSifuaZXAf-4" value="" style="verticalLabelPosition=bottom;verticalAlign=top;html=1;shape=mxgraph.basic.rect;fillColor2=none;strokeWidth=1;size=20;indent=5;" vertex="1" parent="1">
          <mxGeometry x="300" y="270" width="20" height="20" as="geometry" />
        </mxCell>
        <mxCell id="jY3SdsNUeQHSifuaZXAf-6" value="" style="endArrow=none;html=1;rounded=0;entryX=0.488;entryY=1.026;entryDx=0;entryDy=0;entryPerimeter=0;" edge="1" parent="1">
          <mxGeometry width="50" height="50" relative="1" as="geometry">
            <mxPoint x="310" y="330" as="sourcePoint" />
            <mxPoint x="309.87" y="290" as="targetPoint" />
          </mxGeometry>
        </mxCell>
        <mxCell id="jY3SdsNUeQHSifuaZXAf-8" value="" style="endArrow=none;html=1;rounded=0;entryX=0.488;entryY=1.026;entryDx=0;entryDy=0;entryPerimeter=0;" edge="1" parent="1">
          <mxGeometry width="50" height="50" relative="1" as="geometry">
            <mxPoint x="260" y="330" as="sourcePoint" />
            <mxPoint x="259.87" y="290" as="targetPoint" />
          </mxGeometry>
        </mxCell>
        <mxCell id="jY3SdsNUeQHSifuaZXAf-9" value="&amp;lt;&amp;lt;component&amp;gt;&amp;gt;&lt;div&gt;&amp;lt;&amp;lt;C4 Container&amp;gt;&amp;gt;&lt;br&gt;&lt;div&gt;&lt;b&gt;Backend&lt;/b&gt;&lt;/div&gt;&lt;/div&gt;" style="html=1;dropTarget=0;whiteSpace=wrap;" vertex="1" parent="1">
          <mxGeometry x="240" y="340" width="160" height="90" as="geometry" />
        </mxCell>
        <mxCell id="jY3SdsNUeQHSifuaZXAf-10" value="" style="shape=module;jettyWidth=8;jettyHeight=4;" vertex="1" parent="jY3SdsNUeQHSifuaZXAf-9">
          <mxGeometry x="1" width="20" height="20" relative="1" as="geometry">
            <mxPoint x="-27" y="7" as="offset" />
          </mxGeometry>
        </mxCell>
        <mxCell id="jY3SdsNUeQHSifuaZXAf-11" value="" style="verticalLabelPosition=bottom;verticalAlign=top;html=1;shape=mxgraph.basic.rect;fillColor2=none;strokeWidth=1;size=20;indent=5;" vertex="1" parent="1">
          <mxGeometry x="250" y="330" width="20" height="20" as="geometry" />
        </mxCell>
        <mxCell id="jY3SdsNUeQHSifuaZXAf-12" value="" style="verticalLabelPosition=bottom;verticalAlign=top;html=1;shape=mxgraph.basic.rect;fillColor2=none;strokeWidth=1;size=20;indent=5;" vertex="1" parent="1">
          <mxGeometry x="300" y="330" width="20" height="20" as="geometry" />
        </mxCell>
        <mxCell id="jY3SdsNUeQHSifuaZXAf-13" value="&amp;lt;&amp;lt;component&amp;gt;&amp;gt;&lt;div&gt;&amp;lt;&amp;lt;C4 Container&amp;gt;&amp;gt;&lt;br&gt;&lt;div&gt;&lt;b&gt;Base de Dados&lt;/b&gt;&lt;/div&gt;&lt;/div&gt;" style="html=1;dropTarget=0;whiteSpace=wrap;" vertex="1" parent="1">
          <mxGeometry x="460" y="340" width="160" height="90" as="geometry" />
        </mxCell>
        <mxCell id="jY3SdsNUeQHSifuaZXAf-14" value="" style="shape=module;jettyWidth=8;jettyHeight=4;" vertex="1" parent="jY3SdsNUeQHSifuaZXAf-13">
          <mxGeometry x="1" width="20" height="20" relative="1" as="geometry">
            <mxPoint x="-27" y="7" as="offset" />
          </mxGeometry>
        </mxCell>
        <mxCell id="jY3SdsNUeQHSifuaZXAf-21" value="" style="rounded=0;orthogonalLoop=1;jettySize=auto;html=1;endArrow=halfCircle;endFill=0;endSize=6;strokeWidth=1;sketch=0;" edge="1" target="jY3SdsNUeQHSifuaZXAf-23" parent="1">
          <mxGeometry relative="1" as="geometry">
            <mxPoint x="420" y="385" as="sourcePoint" />
            <Array as="points">
              <mxPoint x="400" y="385" />
            </Array>
          </mxGeometry>
        </mxCell>
        <mxCell id="jY3SdsNUeQHSifuaZXAf-22" value="" style="rounded=0;orthogonalLoop=1;jettySize=auto;html=1;endArrow=oval;endFill=0;sketch=0;sourcePerimeterSpacing=0;targetPerimeterSpacing=0;endSize=10;exitX=0;exitY=0.5;exitDx=0;exitDy=0;" edge="1" target="jY3SdsNUeQHSifuaZXAf-23" parent="1" source="jY3SdsNUeQHSifuaZXAf-13">
          <mxGeometry relative="1" as="geometry">
            <mxPoint x="410" y="385" as="sourcePoint" />
          </mxGeometry>
        </mxCell>
        <mxCell id="jY3SdsNUeQHSifuaZXAf-23" value="" style="ellipse;whiteSpace=wrap;html=1;align=center;aspect=fixed;fillColor=none;strokeColor=none;resizable=0;perimeter=centerPerimeter;rotatable=0;allowArrows=0;points=[];outlineConnect=1;" vertex="1" parent="1">
          <mxGeometry x="425" y="380" width="10" height="10" as="geometry" />
        </mxCell>
        <mxCell id="jY3SdsNUeQHSifuaZXAf-25" value="&lt;b&gt;&lt;font style=&quot;font-size: 9px;&quot;&gt;DB API&lt;/font&gt;&lt;/b&gt;" style="text;html=1;align=center;verticalAlign=middle;resizable=0;points=[];autosize=1;strokeColor=none;fillColor=none;" vertex="1" parent="1">
          <mxGeometry x="405" y="390" width="50" height="30" as="geometry" />
        </mxCell>
      </root>
    </mxGraphModel>
  </diagram>
</mxfile>
